<svg height="24" viewBox="0 0 43 24" width="43" xmlns="http://www.w3.org/2000/svg"><g fill="none" fill-rule="evenodd" stroke="#000"><g transform="matrix(.99756405 -.06975647 .06975647 .99756405 1.452135 3.3112)"><path d="m.5.5h36v16h-36z" fill="#fff"/><path d="m2.5 11.5354444c1.53284558.2192564 2.74529919 1.43171 2.96455557 2.9645556h26.07088883c.2192564-1.5328456 1.43171-2.7452992 2.9645556-2.9645556v-6.07088883c-1.5328456-.21925638-2.7452992-1.43170999-2.9645556-2.96455557h-26.07088883c-.21925638 1.53284558-1.43170999 2.74529919-2.96455557 2.96455557z"/><circle cx="18.5" cy="8.5" fill="#fff" r="2.5"/><g stroke-linecap="square"><path d="m24.5 8.5h1"/><path d="m27.5 8.5h1"/><path d="m11.5 8.5h1"/><path d="m8.5 8.5h1"/></g></g><g fill="#fff"><g transform="translate(34 18)"><path d="m0 3.5v-1.3125h2.06199641c.57412489-.11946805 1.23487796-.1875 1.93800359-.1875s1.3638787.06803195 1.93800359.1875h2.06199641v1.3125c0 .82842712-1.790861 1.5-4 1.5s-4-.67157288-4-1.5z"/><ellipse cx="4" cy="1.5" rx="4" ry="1.5"/></g><g transform="translate(34 16)"><path d="m0 3.4v-1.4h2.06199641c.57412489-.12743259 1.23487796-.2 1.93800359-.2s1.3638787.07256741 1.93800359.2h2.06199641v1.4c0 .8836556-1.790861 1.6-4 1.6s-4-.7163444-4-1.6z"/><ellipse cx="4" cy="1.5" rx="4" ry="1.5"/></g><g transform="translate(34 14)"><path d="m0 3.4v-1.4h2.06199641c.57412489-.12743259 1.23487796-.2 1.93800359-.2s1.3638787.07256741 1.93800359.2h2.06199641v1.4c0 .8836556-1.790861 1.6-4 1.6s-4-.7163444-4-1.6z"/><ellipse cx="4" cy="1.5" rx="4" ry="1.5"/></g><g transform="translate(32 12)"><path d="m0 3.4v-1.4h2.06199641c.57412489-.12743259 1.23487796-.2 1.93800359-.2s1.3638787.07256741 1.93800359.2h2.06199641v1.4c0 .8836556-1.790861 1.6-4 1.6s-4-.7163444-4-1.6z"/><ellipse cx="4" cy="1.5" rx="4" ry="1.5"/></g></g></g></svg>